<?xml version="1.0" encoding="UTF-8" standalone="no"?>
<!-- Created with Inkscape (http://www.inkscape.org/) -->

<svg
   width="16"
   height="15.999999"
   viewBox="0 0 4.2333332 4.2333331"
   version="1.1"
   id="svg1"
   xml:space="preserve"
   xmlns="http://www.w3.org/2000/svg"
   xmlns:svg="http://www.w3.org/2000/svg"><defs
     id="defs1" /><g
     id="layer1"
     transform="translate(-237.65079,-33.526786)"><rect
       style="fill:#80b3ff;fill-opacity:1;stroke:#000000;stroke-width:0;stroke-dasharray:none;stroke-opacity:1"
       id="rect7"
       width="4.9517279"
       height="4.802062"
       x="237.26167"
       y="33.257393" /><path
       d="m 238.7865,36.937849 c -0.18924,-0.04241 -0.37996,-0.132468 -0.52334,-0.247149 -0.1187,-0.0949 -0.13111,-0.163822 -0.12167,-0.671656 0.007,-0.411909 0.009,-0.424649 0.0622,-0.594968 0.03,-0.09573 0.0545,-0.184368 0.0546,-0.196979 1.9e-4,-0.01627 -0.0212,-0.02132 -0.0738,-0.0174 -0.0566,0.0042 -0.0739,-5.72e-4 -0.0739,-0.02058 0,-0.01818 0.0249,-0.02897 0.0819,-0.03553 0.0451,-0.0051 0.0852,-0.01308 0.0892,-0.0174 0.004,-0.0045 0.0206,-0.08239 0.0369,-0.173328 0.0364,-0.202736 0.0691,-0.27771 0.17318,-0.397843 0.0444,-0.0513 0.0886,-0.107798 0.0981,-0.125575 0.0318,-0.05951 0.12908,-0.07184 0.51316,-0.06504 0.42288,0.0074 0.44495,0.01335 0.58963,0.158065 0.13111,0.131146 0.15583,0.185664 0.15721,0.347154 10e-4,0.161663 -0.0219,0.194151 -0.16556,0.231081 -0.12611,0.03241 -0.76493,0.07842 -1.08876,0.07842 h -0.26004 l -0.0656,0.230612 -0.0656,0.230614 0.005,0.458888 0.005,0.458891 0.0777,0.0689 c 0.0426,0.0379 0.14061,0.09929 0.21754,0.136447 0.24336,0.117509 0.27361,0.121326 0.9628,0.121326 h 0.61542 l 0.12503,-0.05103 c 0.0687,-0.02805 0.23516,-0.07851 0.36979,-0.112114 0.34359,-0.08576 0.42005,-0.118035 0.50668,-0.213838 0.0918,-0.101525 0.15423,-0.293297 0.17193,-0.528072 0.0313,-0.414459 0.0329,-0.426418 0.06,-0.426418 0.0298,0 0.0313,0.05464 0.0108,0.365501 -0.0138,0.198556 -0.0603,0.406853 -0.11532,0.515195 -0.0175,0.03446 -0.0656,0.09713 -0.10683,0.139236 -0.0866,0.08844 -0.21446,0.138426 -0.57195,0.223536 -0.12018,0.02861 -0.2651,0.07383 -0.32201,0.10046 l -0.10345,0.04844 -0.60915,0.0031 c -0.46451,0.0023 -0.63468,-0.0026 -0.71658,-0.02095 z m 0.42937,-1.836673 c 0.33038,-0.0212 0.47965,-0.04326 0.5352,-0.07907 0.0343,-0.02211 0.0393,-0.03997 0.0393,-0.143275 0,-0.09965 -0.008,-0.130067 -0.0491,-0.195402 -0.0585,-0.09222 -0.1614,-0.185722 -0.24053,-0.218791 -0.0428,-0.0179 -0.1559,-0.02393 -0.44826,-0.02393 h -0.39098 l -0.0393,0.05656 c -0.0216,0.0311 -0.0647,0.08546 -0.0959,0.1208 -0.0805,0.09122 -0.10953,0.154956 -0.13792,0.303119 -0.0138,0.07149 -0.0293,0.147567 -0.0347,0.169056 l -0.0108,0.03908 0.29246,-0.0049 c 0.16085,-0.0027 0.4217,-0.01308 0.57964,-0.02329 z m 1.10521,-0.277564 c -0.007,-0.01119 -0.007,-0.02739 0.003,-0.0359 0.0235,-0.02342 0.37776,-0.05035 0.71946,-0.05469 l 0.30457,-0.0039 -0.30457,-0.0093 c -0.255,-0.0078 -0.30459,-0.01357 -0.30459,-0.03543 0,-0.02236 0.0612,-0.02681 0.42641,-0.03101 0.45097,-0.0051 0.50474,-9.42e-4 0.50474,0.03971 0,0.014 -0.0177,0.0295 -0.0393,0.03446 -0.0214,0.005 -0.0901,0.02149 -0.15229,0.03673 -0.0795,0.01946 -0.25556,0.03193 -0.59176,0.04189 -0.26324,0.0078 -0.49536,0.01952 -0.51583,0.02603 -0.0219,0.007 -0.0423,0.0034 -0.0499,-0.0086 z"
       style="fill:#000000;stroke:#000000;stroke-width:0.190957;stroke-opacity:1"
       id="path1-6" /></g></svg>
