<?xml version="1.0" encoding="UTF-8" standalone="no"?>
<!-- Created with Inkscape (http://www.inkscape.org/) -->

<svg
   width="14.184664mm"
   height="12.532863mm"
   viewBox="0 0 14.184664 12.532863"
   version="1.1"
   id="svg1"
   xml:space="preserve"
   xmlns="http://www.w3.org/2000/svg"
   xmlns:svg="http://www.w3.org/2000/svg"><defs
     id="defs1" /><g
     id="layer1"
     transform="translate(-884.24224,64.299561)"><path
       d="m 891.46099,-63.001731 c 0.79618,-1.22568 5.97182,-1.96457 6.71952,-0.44505 0.43697,0.88802 0.15965,2.38925 0.15965,3.35547 v 8.20208 c -1.05014,0 -3.21167,0.4108 -4.07368,-0.27193 -0.86484,-0.68496 -0.68055,-4.79603 -0.26459,-5.74489 0.41679,-0.95074 1.9708,-1.42806 1.40499,-2.70258 -0.60848,-1.37063 -2.62761,-1.29706 -2.93206,0.25661 -0.19489,0.99457 0.91145,1.72091 1.06385,2.66564 0.29792,1.8468 0.039,3.92646 0.039,5.79715 h -4.49792 c 0,-1.87074 -0.25881,-3.95027 0.039,-5.79715 0.1415,-0.87752 1.04096,-1.4966 0.99668,-2.40187 -0.0378,-0.77274 -0.79135,-1.53522 -1.5679,-1.5677 -2.63738,-0.1103 -1.35074,2.86151 0.26764,3.41672 0,1.56681 0.53737,4.32021 -0.15965,5.73672 -0.48295,0.98149 -3.64767,0.96936 -4.14187,0 -0.45942,-0.90113 -0.1964,-2.37337 -0.1964,-3.35547 v -7.9375 c 2.65329,-0.007 4.70559,-0.56724 7.14375,0.79375"
       style="fill:#0f150f;stroke:none"
       id="path1-2" /></g></svg>
