<?xml version="1.0" encoding="UTF-8" standalone="no"?>
<!-- Created with Inkscape (http://www.inkscape.org/) -->

<svg
   width="22.489582mm"
   height="17.4625mm"
   viewBox="0 0 22.489582 17.4625"
   version="1.1"
   id="svg1"
   xml:space="preserve"
   xmlns="http://www.w3.org/2000/svg"
   xmlns:svg="http://www.w3.org/2000/svg"><defs
     id="defs1" /><g
     id="layer1"
     transform="translate(-684.02781,373.09332)"><path
       d="m 700.16738,-373.09331 6.35,17.1979 h -6.61459 c 0,-0.88139 -0.24989,-2.24324 0.27194,-3.00739 0.69817,-1.02238 2.14174,-1.32664 2.17852,-2.81344 0.10764,-4.35042 -7.19676,-1.8964 -4.20454,1.5481 0.36552,0.42077 0.73718,0.60022 1.22492,0.83315 v 3.43958 h -8.46667 c 0,-0.95202 -0.20946,-2.20414 0.15944,-3.09945 0.51718,-1.25516 2.04127,-1.92647 1.42153,-3.50452 -0.96399,-2.45461 -4.64287,-1.91997 -4.64287,0.78335 0,1.82377 1.73929,1.82847 2.52538,3.02086 0.48429,0.7346 0.27194,1.96143 0.27194,2.79976 l -6.61459,0.26459 1.45399,-5.29167 4.36685,-11.90624 h 0.52916 l 4.49792,10.31874 4.7625,-10.58332 h 0.52917"
       style="fill:#0f150f;stroke:none"
       id="path1-56" /></g></svg>
