<?xml version="1.0" encoding="UTF-8" standalone="no"?>
<!-- Created with Inkscape (http://www.inkscape.org/) -->

<svg
   width="16.933332mm"
   height="12.002255mm"
   viewBox="0 0 16.933332 12.002255"
   version="1.1"
   id="svg1"
   xml:space="preserve"
   xmlns="http://www.w3.org/2000/svg"
   xmlns:svg="http://www.w3.org/2000/svg"><defs
     id="defs1" /><g
     id="layer1"
     transform="translate(-856.80068,130.30184)"><path
       d="m 868.44235,-130.20582 c -0.0141,1.20194 -1.15533,2.90991 -0.71781,3.95406 0.58869,1.40489 2.56869,1.26516 2.90042,-0.25459 0.28086,-1.28674 -1.39695,-1.59261 -1.53013,-2.68094 -0.19299,-1.57701 3.71106,-1.01853 4.63919,-1.01853 l -4.23334,11.90625 c -2.08498,-1.20455 -3.01623,-5.58766 -4.23333,-7.67292 l -3.43958,7.67292 h -0.52917 l -4.49792,-11.64167 h 5.02709 c -0.10836,1.36369 -1.68395,1.92335 -1.68387,3.1748 1.2e-4,1.67927 2.31418,2.0196 2.93166,0.51468 0.45536,-1.10982 -0.94267,-2.46179 -0.98321,-3.68948 l 6.35,-0.26458"
       style="fill:#0f150f;stroke:none"
       id="path1-1" /></g></svg>
