<svg viewBox="0 0 64 64" xmlns="http://www.w3.org/2000/svg">
  <!-- Outer orbital ring -->
  <circle cx="32" cy="32" r="28" fill="none" stroke="#19CD71" stroke-width="1" opacity="0.3"/>
  
  <!-- Middle orbital ring -->
  <circle cx="32" cy="32" r="20" fill="none" stroke="#19CD71" stroke-width="1" opacity="0.5"/>
  
  <!-- Central core -->
  <circle cx="32" cy="32" r="8" fill="#19CD71" opacity="0.8"/>
  <circle cx="32" cy="32" r="5" fill="#19CD71"/>
  
  <!-- Satellite nodes on outer ring -->
  <circle cx="32" cy="4" r="2.5" fill="#19CD71"/>
  <circle cx="55.86" cy="18" r="2.5" fill="#19CD71"/>
  <circle cx="55.86" cy="46" r="2.5" fill="#19CD71"/>
  <circle cx="32" cy="60" r="2.5" fill="#19CD71"/>
  <circle cx="8.14" cy="46" r="2.5" fill="#19CD71"/>
  <circle cx="8.14" cy="18" r="2.5" fill="#19CD71"/>
  
  <!-- Satellite nodes on middle ring -->
  <circle cx="46.24" cy="11.76" r="2" fill="#19CD71"/>
  <circle cx="52.24" cy="32" r="2" fill="#19CD71"/>
  <circle cx="46.24" cy="52.24" r="2" fill="#19CD71"/>
  <circle cx="17.76" cy="52.24" r="2" fill="#19CD71"/>
  <circle cx="11.76" cy="32" r="2" fill="#19CD71"/>
  <circle cx="17.76" cy="11.76" r="2" fill="#19CD71"/>
  
  <!-- Connection lines from center to outer satellites -->
  <line x1="32" y1="32" x2="32" y2="4" stroke="#19CD71" stroke-width="0.8" opacity="0.6"/>
  <line x1="32" y1="32" x2="55.86" y2="18" stroke="#19CD71" stroke-width="0.8" opacity="0.6"/>
  <line x1="32" y1="32" x2="55.86" y2="46" stroke="#19CD71" stroke-width="0.8" opacity="0.6"/>
  <line x1="32" y1="32" x2="32" y2="60" stroke="#19CD71" stroke-width="0.8" opacity="0.6"/>
  <line x1="32" y1="32" x2="8.14" y2="46" stroke="#19CD71" stroke-width="0.8" opacity="0.6"/>
  <line x1="32" y1="32" x2="8.14" y2="18" stroke="#19CD71" stroke-width="0.8" opacity="0.6"/>
  
  <!-- Connection lines from center to middle satellites -->
  <line x1="32" y1="32" x2="46.24" y2="11.76" stroke="#19CD71" stroke-width="0.6" opacity="0.4"/>
  <line x1="32" y1="32" x2="52.24" y2="32" stroke="#19CD71" stroke-width="0.6" opacity="0.4"/>
  <line x1="32" y1="32" x2="46.24" y2="52.24" stroke="#19CD71" stroke-width="0.6" opacity="0.4"/>
  <line x1="32" y1="32" x2="17.76" y2="52.24" stroke="#19CD71" stroke-width="0.6" opacity="0.4"/>
  <line x1="32" y1="32" x2="11.76" y2="32" stroke="#19CD71" stroke-width="0.6" opacity="0.4"/>
  <line x1="32" y1="32" x2="17.76" y2="11.76" stroke="#19CD71" stroke-width="0.6" opacity="0.4"/>
  
  <!-- Inter-satellite connections (web effect) -->
  <line x1="32" y1="4" x2="55.86" y2="18" stroke="#19CD71" stroke-width="0.4" opacity="0.3"/>
  <line x1="55.86" y1="18" x2="55.86" y2="46" stroke="#19CD71" stroke-width="0.4" opacity="0.3"/>
  <line x1="55.86" y1="46" x2="32" y2="60" stroke="#19CD71" stroke-width="0.4" opacity="0.3"/>
  <line x1="32" y1="60" x2="8.14" y2="46" stroke="#19CD71" stroke-width="0.4" opacity="0.3"/>
  <line x1="8.14" y1="46" x2="8.14" y2="18" stroke="#19CD71" stroke-width="0.4" opacity="0.3"/>
  <line x1="8.14" y1="18" x2="32" y2="4" stroke="#19CD71" stroke-width="0.4" opacity="0.3"/>
  
  <!-- Subtle glow effect on center -->
  <circle cx="32" cy="32" r="10" fill="none" stroke="#19CD71" stroke-width="1" opacity="0.2"/>
</svg>